<svg width="32" height="32" viewBox="0 0 32 32" fill="none" xmlns="http://www.w3.org/2000/svg">
<path d="M25 15H22V8C22 7.73478 21.8946 7.48043 21.7071 7.29289C21.5196 7.10536 21.2652 7 21 7H7C6.73478 7 6.48043 7.10536 6.29289 7.29289C6.10536 7.48043 6 7.73478 6 8V22C6 23.654 7.346 25 9 25H23C24.654 25 26 23.654 26 22V16C26 15.7348 25.8946 15.4804 25.7071 15.2929C25.5196 15.1054 25.2652 15 25 15ZM9 23C8.73478 23 8.48043 22.8946 8.29289 22.7071C8.10536 22.5196 8 22.2652 8 22V9H20V22C20 22.351 20.061 22.688 20.171 23H9ZM24 22C24 22.2652 23.8946 22.5196 23.7071 22.7071C23.5196 22.8946 23.2652 23 23 23C22.7348 23 22.4804 22.8946 22.2929 22.7071C22.1054 22.5196 22 22.2652 22 22V17H24V22Z" fill="#97939A"/>
<path d="M10 11H18V13H10V11ZM10 15H18V17H10V15ZM15 19H18V21H15V19Z" fill="#97939A"/>
</svg>
