<svg width="16" height="16" viewBox="0 0 16 16" fill="none" xmlns="http://www.w3.org/2000/svg">
<path d="M2.00477 5C1.72506 5 1.48774 5.11022 1.29265 5.33065C1.09757 5.55108 1 5.8156 1 6.12432V10.8645C1 11.1809 1.09754 11.4489 1.29265 11.6693C1.48774 11.8898 1.72506 12 2.00477 12C2.28427 12 2.52016 11.8898 2.71222 11.6693C2.9039 11.4489 3 11.1809 3 10.8645V6.12432C3 5.81556 2.90246 5.55108 2.70735 5.33065C2.51223 5.11022 2.27799 5 2.00477 5Z" fill="#323033"/>
<path d="M4 12C4 12.5 4.5 13 5 13V14C5 14.5758 5.45385 15 6 15C6.59206 15 7.01097 14.6239 7.01097 14V13L9 13.0002V14C9 14.5 9.5 15 10 15C10.5 15 11 14.5 11 14V13C11.5 13 12 12.5 12 12V5.00001H4V12Z" fill="#323033"/>
<path d="M13.9952 5C13.7219 5 13.4878 5.10859 13.2927 5.32518C13.0976 5.54216 13 5.8087 13 6.12432V10.8645C13 11.1809 13.0975 11.4489 13.2927 11.6693C13.4878 11.8898 13.7221 12 13.9952 12C14.2747 12 14.5122 11.8898 14.7073 11.6693C14.9025 11.4489 15 11.1809 15 10.8645V6.12432C15 5.80866 14.9025 5.54216 14.7073 5.32518C14.5122 5.10859 14.2747 5 13.9952 5Z" fill="#323033"/>
<path d="M6.03249 1.38915L6.25717 1.29742C6.80507 1.09926 7.38457 1 7.99565 1C8.60687 1 9.18642 1.09928 9.73411 1.29742L9.95879 1.38915C10.5815 1.64891 11.0774 2.01069 11.4464 2.47525C11.8154 2.94008 12 3.44803 12 4H4C4 3.44816 4.1846 2.94018 4.55358 2.47525C4.9226 2.01069 5.41568 1.64891 6.03249 1.38915Z" fill="#323033"/>
</svg>
