<svg width="32" height="32" viewBox="0 0 32 32" fill="none" xmlns="http://www.w3.org/2000/svg">
<path d="M23 6H13C11.897 6 11 6.897 11 8V14H9C7.897 14 7 14.897 7 16V25C7 25.2652 7.10536 25.5196 7.29289 25.7071C7.48043 25.8946 7.73478 26 8 26H24C24.2652 26 24.5196 25.8946 24.7071 25.7071C24.8946 25.5196 25 25.2652 25 25V8C25 6.897 24.103 6 23 6ZM9 16H15V24H9V16ZM23 24H17V16C17 14.897 16.103 14 15 14H13V8H23V24Z" fill="#97939A"/>
<path d="M15 10H17V12H15V10ZM19 10H21V12H19V10ZM19 14.031H21V16H19V14.031ZM19 18H21V20H19V18ZM11 18.001H13V20.001H11V18.001Z" fill="#97939A"/>
</svg>
