<svg width="32" height="32" viewBox="0 0 32 32" fill="none" xmlns="http://www.w3.org/2000/svg">
<path d="M16 6C10.486 6 6 10.486 6 16C6 21.514 10.486 26 16 26C21.514 26 26 21.514 26 16C26 10.486 21.514 6 16 6ZM23.931 15H20.899C20.7012 14.0403 20.2264 13.1596 19.5335 12.4669C18.8405 11.7741 17.9597 11.2996 17 11.102V8.069C18.7598 8.29335 20.3953 9.09574 21.6498 10.3502C22.9043 11.6047 23.7066 13.2402 23.931 15ZM16 13C17.654 13 19 14.346 19 16C19 17.654 17.654 19 16 19C14.346 19 13 17.654 13 16C13 14.346 14.346 13 16 13ZM16 24C11.589 24 8 20.411 8 16C8 11.928 11.061 8.564 15 8.069V11.101C13.8716 11.3331 12.8576 11.947 12.129 12.8394C11.4004 13.7317 11.0017 14.848 11 16C11 18.757 13.243 21 16 21C17.152 20.9985 18.2682 20.5998 19.1604 19.8711C20.0526 19.1424 20.6663 18.1284 20.898 17H23.93C23.436 20.939 20.072 24 16 24Z" fill="#97939A"/>
</svg>
