<svg width="32" height="32" viewBox="0 0 32 32" fill="none" xmlns="http://www.w3.org/2000/svg">
<path d="M12.5 17C13.9388 17 15 15.9388 15 14.5C15 13.0612 13.9388 12 12.5 12C11.0612 12 10 13.0612 10 14.5C10 15.9388 11.06 17 12.5 17Z" fill="#97939A"/>
<path d="M25 8H7C5.897 8 5 8.841 5 9.875V22.125C5 23.159 5.897 24 7 24H25C26.103 24 27 23.159 27 22.125V9.875C27 8.841 26.103 8 25 8ZM25 22L7 21.989V10L25 10.011V22Z" fill="#97939A"/>
<path d="M18 13H23V15H18V13ZM19 17H23V19H19V17ZM16 20C16 19 15.5 18 12.5 18C9.5 18 9 19 9 20H16Z" fill="#97939A"/>
</svg>
