<svg width="32" height="32" viewBox="0 0 32 32" fill="none" xmlns="http://www.w3.org/2000/svg">
<circle cx="16" cy="16" r="3" fill="#97939A"/>
<path d="M6.53895 16.4999C6.39977 16.3113 6.28168 16.1427 6.18515 16C6.28168 15.8573 6.39977 15.6887 6.53895 15.5001C6.99618 14.8806 7.67486 14.0547 8.55732 13.2311C10.3322 11.5745 12.8496 10 16 10C19.1504 10 21.6677 11.5745 23.4427 13.2311C24.3251 14.0547 25.0038 14.8806 25.4611 15.5001C25.6002 15.6887 25.7183 15.8573 25.8148 16C25.7183 16.1427 25.6002 16.3113 25.4611 16.4999C25.0038 17.1194 24.3251 17.9453 23.4427 18.7689C21.6677 20.4255 19.1504 22 16 22C12.8496 22 10.3322 20.4255 8.55732 18.7689C7.67486 17.9453 6.99618 17.1194 6.53895 16.4999Z" stroke="#97939A" stroke-width="2"/>
</svg>
