<svg width="32" height="32" viewBox="0 0 32 32" fill="none" xmlns="http://www.w3.org/2000/svg">
<path d="M23.045 11.4781C23.423 11.1001 23.631 10.5981 23.631 10.0641C23.631 9.53012 23.423 9.02812 23.045 8.65012L21.459 7.06412C21.081 6.68612 20.579 6.47812 20.045 6.47812C19.511 6.47812 19.009 6.68612 18.632 7.06312L8 17.6621V22.0771H12.413L23.045 11.4781ZM20.045 8.47812L21.632 10.0631L20.042 11.6471L18.456 10.0621L20.045 8.47812ZM10 20.0771V18.4921L17.04 11.4741L18.626 13.0601L11.587 20.0771H10ZM8 24.0771H24V26.0771H8V24.0771Z" fill="#97939A"/>
</svg>
