<svg width="32" height="32" viewBox="0 0 32 32" fill="none" xmlns="http://www.w3.org/2000/svg">
<path d="M16 8C10.486 8 6 12.486 6 18C5.99871 19.5434 6.35864 21.0656 7.051 22.445C7.221 22.785 7.567 23 7.946 23H24.053C24.432 23 24.779 22.785 24.949 22.445C25.6414 21.0656 26.0013 19.5434 26 18C26 12.486 21.514 8 16 8ZM23.41 21H8.59C8.19924 20.0481 7.99879 19.0289 8 18C8 13.589 11.589 10 16 10C20.411 10 24 13.589 24 18C24.0012 19.0289 23.8008 20.0481 23.41 21Z" fill="#97939A"/>
<path d="M14.939 16.939C14.7263 17.0781 14.5516 17.268 14.4306 17.4916C14.3097 17.7152 14.2464 17.9653 14.2464 18.2195C14.2464 18.4737 14.3097 18.7238 14.4306 18.9474C14.5516 19.171 14.7263 19.3609 14.939 19.5C15.1071 19.6106 15.2953 19.687 15.493 19.7247C15.6906 19.7624 15.8938 19.7608 16.0908 19.72C16.2878 19.6791 16.4748 19.5998 16.6411 19.4865C16.8074 19.3733 16.9498 19.2283 17.06 19.06L21.022 13.022C21.0252 13.0167 21.0269 13.0107 21.0269 13.0045C21.0269 12.9983 21.0252 12.9923 21.022 12.987C21.0173 12.9798 21.01 12.9747 21.0015 12.9728C20.9931 12.971 20.9843 12.9725 20.977 12.977L14.939 16.939Z" fill="#97939A"/>
</svg>
