<svg width="32" height="32" viewBox="0 0 32 32" fill="none" xmlns="http://www.w3.org/2000/svg">
<path d="M16 12V17H21V15H18V12H16Z" fill="#97939A"/>
<path d="M25.292 12.497C24.8409 11.4271 24.1861 10.455 23.364 9.635C22.1196 8.39057 20.5377 7.5381 18.814 7.183C17.6176 6.93949 16.3844 6.93949 15.188 7.183C13.4627 7.53584 11.8795 8.389 10.636 9.636C9.81589 10.4569 9.16133 11.4279 8.708 12.496C8.23911 13.6046 7.99832 14.7963 8 16L8.001 16.025H6L9 20L12 16.025H10.001L10 16C9.99712 14.6054 10.4135 13.2421 11.195 12.087C11.6991 11.3417 12.341 10.6995 13.086 10.195C13.8439 9.68441 14.6941 9.3264 15.589 9.141C17.4075 8.7671 19.3001 9.13063 20.8507 10.1517C22.4013 11.1727 23.483 12.7677 23.858 14.586C24.0466 15.5179 24.0466 16.4781 23.858 17.41C23.675 18.3056 23.3168 19.1563 22.804 19.913C22.554 20.284 22.267 20.633 21.95 20.949C21.3112 21.587 20.5558 22.0966 19.725 22.45C19.3018 22.6289 18.862 22.7655 18.412 22.858C17.4804 23.0465 16.5206 23.0465 15.589 22.858C14.6943 22.6746 13.8445 22.3168 13.088 21.805C12.716 21.5536 12.3687 21.2673 12.051 20.95L10.637 22.364C11.4721 23.2003 12.464 23.8636 13.5559 24.3159C14.6478 24.7682 15.8181 25.0007 17 25C18.2031 24.9995 19.3939 24.7592 20.503 24.293C22.1106 23.6128 23.486 22.4803 24.462 21.033C25.4665 19.5469 26.0022 17.7937 26 16C26.0025 14.7966 25.7617 13.605 25.292 12.497Z" fill="#97939A"/>
</svg>
