<svg width="32" height="32" viewBox="0 0 32 32" fill="none" xmlns="http://www.w3.org/2000/svg">
<path d="M8.72727 23L6 26H26L23.2727 23" stroke="#97939A" stroke-width="2" stroke-linecap="round" stroke-linejoin="round"/>
<circle r="1" transform="matrix(-1 0 0 1 16 13)" stroke="#97939A" stroke-width="2"/>
<path d="M22 13.2C22 15.7487 20.6771 17.9651 19.1471 19.5893C18.3886 20.3945 17.6041 21.0264 16.9635 21.4506C16.6424 21.6632 16.3702 21.8153 16.1665 21.9099C16.0922 21.9444 16.0374 21.9664 16 21.9802C15.9626 21.9664 15.9078 21.9444 15.8335 21.9099C15.6298 21.8153 15.3576 21.6632 15.0365 21.4506C14.3959 21.0264 13.6114 20.3945 12.8529 19.5893C11.3229 17.9651 10 15.7487 10 13.2C10 9.74909 12.7127 7 16 7C19.2873 7 22 9.74909 22 13.2Z" stroke="#97939A" stroke-width="2"/>
</svg>
