<svg width="32" height="32" viewBox="0 0 32 32" fill="none" xmlns="http://www.w3.org/2000/svg">
<path d="M26 11.999C25.9998 11.8205 25.9519 11.6454 25.8611 11.4917C25.7704 11.338 25.6402 11.2114 25.484 11.125L16.462 6.12499C16.3138 6.04332 16.1473 6.00049 15.978 6.00049C15.8088 6.00049 15.6422 6.04332 15.494 6.12499L6.516 11.085C6.36004 11.1714 6.23 11.2978 6.13935 11.4514C6.0487 11.6049 6.00073 11.7798 6.00043 11.9581C6.00012 12.1364 6.04748 12.3115 6.13761 12.4653C6.22773 12.6192 6.35734 12.7461 6.513 12.833L15.535 17.873C15.6835 17.9564 15.851 18.0004 16.0214 18.0005C16.1917 18.0007 16.3593 17.9571 16.508 17.874L25.486 12.874C25.642 12.7873 25.7719 12.6604 25.8622 12.5065C25.9526 12.3527 26.0002 12.1774 26 11.999ZM16.023 15.854L9.06 11.965L15.977 8.14299L22.941 12.002L16.023 15.854Z" fill="#97939A"/>
<path d="M24.515 15.126L16 19.856L7.48498 15.126L6.51398 16.874L15.514 21.874C15.6625 21.9565 15.8296 21.9998 15.9995 21.9998C16.1694 21.9998 16.3365 21.9565 16.485 21.874L25.485 16.874L24.515 15.126Z" fill="#97939A"/>
<path d="M24.515 19.126L16 23.856L7.48498 19.126L6.51398 20.874L15.514 25.874C15.6625 25.9565 15.8296 25.9998 15.9995 25.9998C16.1694 25.9998 16.3365 25.9565 16.485 25.874L25.485 20.874L24.515 19.126Z" fill="#97939A"/>
</svg>
