<svg width="32" height="32" viewBox="0 0 32 32" fill="none" xmlns="http://www.w3.org/2000/svg">
<path d="M14 15H11.101L11.102 14.991C11.2326 14.3516 11.4881 13.7444 11.854 13.204C12.3985 12.4018 13.1621 11.7732 14.054 11.393C14.356 11.265 14.671 11.167 14.992 11.102C15.6579 10.967 16.3441 10.967 17.01 11.102C17.967 11.2981 18.8451 11.7714 19.535 12.463L20.951 11.051C20.3128 10.4126 19.5578 9.90304 18.727 9.55C18.3033 9.37063 17.8628 9.23395 17.412 9.142C16.4818 8.95301 15.5232 8.95301 14.593 9.142C14.1419 9.23434 13.701 9.37134 13.277 9.551C12.0275 10.0811 10.9579 10.9611 10.197 12.085C9.68489 12.8429 9.32676 13.694 9.143 14.59C9.115 14.725 9.1 14.863 9.08 15H6L10 19L14 15ZM18 17H20.899L20.898 17.008C20.6367 18.2898 19.8812 19.4171 18.795 20.146C18.2548 20.5122 17.6475 20.7678 17.008 20.898C16.3424 21.033 15.6566 21.033 14.991 20.898C14.3516 20.7674 13.7443 20.5119 13.204 20.146C12.9386 19.9665 12.6908 19.7622 12.464 19.536L11.05 20.95C11.6885 21.5882 12.4439 22.0975 13.275 22.45C13.699 22.63 14.142 22.767 14.59 22.858C15.5198 23.0471 16.4782 23.0471 17.408 22.858C19.2005 22.486 20.7773 21.4294 21.803 19.913C22.3146 19.1557 22.6724 18.3053 22.856 17.41C22.883 17.275 22.899 17.137 22.919 17H26L22 13L18 17Z" fill="#97939A"/>
</svg>
