<svg width="32" height="32" viewBox="0 0 32 32" fill="none" xmlns="http://www.w3.org/2000/svg">
<path d="M16 20C18.206 20 20 18.206 20 16C20 13.794 18.206 12 16 12C13.794 12 12 13.794 12 16C12 18.206 13.794 20 16 20ZM16 14C17.084 14 18 14.916 18 16C18 17.084 17.084 18 16 18C14.916 18 14 17.084 14 16C14 14.916 14.916 14 16 14Z" fill="#97939A"/>
<path d="M6.84501 20.136L7.84501 21.866C8.37601 22.783 9.65401 23.127 10.575 22.596L11.104 22.29C11.6825 22.7451 12.3204 23.1192 13 23.402V24C13 25.103 13.897 26 15 26H17C18.103 26 19 25.103 19 24V23.402C19.6794 23.1192 20.3172 22.7454 20.896 22.291L21.425 22.597C22.348 23.127 23.623 22.785 24.156 21.866L25.155 20.137C25.42 19.6777 25.4919 19.132 25.3548 18.6197C25.2178 18.1075 24.883 17.6706 24.424 17.405L23.919 17.113C24.0264 16.3756 24.0264 15.6264 23.919 14.889L24.424 14.597C24.8828 14.3312 25.2174 13.8943 25.3544 13.3822C25.4915 12.87 25.4198 12.3244 25.155 11.865L24.156 10.136C23.625 9.216 22.348 8.871 21.425 9.404L20.896 9.71C20.3175 9.25491 19.6796 8.8808 19 8.598V8C19 6.897 18.103 6 17 6H15C13.897 6 13 6.897 13 8V8.598C12.3207 8.88084 11.6828 9.25459 11.104 9.709L10.575 9.403C9.65101 8.872 8.37501 9.216 7.84401 10.135L6.84501 11.864C6.57999 12.3233 6.50812 12.869 6.64518 13.3813C6.78225 13.8935 7.11703 14.3304 7.57601 14.596L8.08101 14.888C7.97324 15.6251 7.97324 16.3739 8.08101 17.111L7.57601 17.403C7.11717 17.669 6.78254 18.106 6.6455 18.6184C6.50847 19.1307 6.58021 19.6765 6.84501 20.136ZM10.171 17.378C10.0581 16.9273 10.0007 16.4646 10 16C10 15.538 10.058 15.074 10.17 14.622C10.2227 14.4113 10.2054 14.1892 10.1206 13.9893C10.0358 13.7893 9.88814 13.6225 9.70001 13.514L8.57701 12.864L9.57501 11.135L10.72 11.797C10.9067 11.905 11.1235 11.9496 11.3377 11.924C11.5519 11.8984 11.752 11.804 11.908 11.655C12.5845 11.0116 13.4003 10.5328 14.292 10.256C14.4968 10.1935 14.6762 10.0668 14.8036 9.89473C14.9311 9.72263 14.9999 9.51416 15 9.3V8H17V9.3C17.0001 9.51416 17.0689 9.72263 17.1964 9.89473C17.3238 10.0668 17.5032 10.1935 17.708 10.256C18.5995 10.5332 19.4152 11.0119 20.092 11.655C20.2482 11.8037 20.4483 11.8979 20.6624 11.9235C20.8765 11.9491 21.0932 11.9047 21.28 11.797L22.424 11.136L23.424 12.865L22.3 13.514C22.112 13.6226 21.9644 13.7895 21.8797 13.9894C21.7949 14.1893 21.7774 14.4113 21.83 14.622C21.942 15.074 22 15.538 22 16C22 16.461 21.942 16.925 21.829 17.378C21.7765 17.5888 21.7941 17.8109 21.8791 18.0108C21.9641 18.2107 22.1118 18.3775 22.3 18.486L23.423 19.135L22.425 20.864L21.28 20.203C21.0933 20.0948 20.8766 20.0501 20.6623 20.0757C20.4481 20.1013 20.2479 20.1958 20.092 20.345C19.4155 20.9884 18.5997 21.4672 17.708 21.744C17.5032 21.8065 17.3238 21.9332 17.1964 22.1053C17.0689 22.2774 17.0001 22.4858 17 22.7L17.002 24H15V22.7C14.9999 22.4858 14.9311 22.2774 14.8036 22.1053C14.6762 21.9332 14.4968 21.8065 14.292 21.744C13.4005 21.4668 12.5848 20.9881 11.908 20.345C11.7523 20.1954 11.5521 20.1007 11.3377 20.0753C11.1232 20.0498 10.9064 20.095 10.72 20.204L9.57601 20.866L8.57601 19.137L9.70001 18.486C9.8882 18.3775 10.036 18.2107 10.1209 18.0108C10.2059 17.8109 10.2235 17.5888 10.171 17.378Z" fill="#97939A"/>
</svg>
