<svg width="32" height="32" viewBox="0 0 32 32" fill="none" xmlns="http://www.w3.org/2000/svg">
<path d="M16.9998 12.0538V8.99979C16.9998 8.80204 17.0585 8.60874 17.1684 8.44433C17.2783 8.27992 17.4344 8.15178 17.6171 8.07611C17.7998 8.00044 18.0009 7.98064 18.1948 8.0192C18.3888 8.05777 18.5669 8.15298 18.7068 8.29279L25.7068 15.2928C25.7997 15.3856 25.8735 15.4958 25.9238 15.6171C25.9741 15.7384 26 15.8685 26 15.9998C26 16.1311 25.9741 16.2612 25.9238 16.3825C25.8735 16.5038 25.7997 16.614 25.7068 16.7068L18.7068 23.7068C18.5671 23.8471 18.3889 23.9427 18.1948 23.9816C18.0007 24.0204 17.7994 24.0007 17.6165 23.925C17.4336 23.8492 17.2774 23.7208 17.1676 23.5561C17.0578 23.3914 16.9994 23.1978 16.9998 22.9998V19.9038C16.7158 19.8838 16.4348 19.8748 16.1568 19.8748C10.7308 19.8748 7.9178 23.4468 7.7948 23.6048C7.66873 23.7715 7.49341 23.8944 7.29366 23.9559C7.0939 24.0175 6.87985 24.0146 6.6818 23.9478C6.48313 23.8812 6.31041 23.7538 6.18804 23.5837C6.06566 23.4136 5.99982 23.2093 5.9998 22.9998C5.9998 13.8758 14.0858 12.3188 16.9998 12.0538ZM16.1568 17.8748C16.8038 17.8748 17.4688 17.9198 18.1318 18.0078C18.3721 18.04 18.5925 18.1583 18.7521 18.3407C18.9118 18.5232 18.9998 18.7574 18.9998 18.9998V20.5858L23.5858 15.9998L18.9998 11.4138V12.9998C18.9998 13.5518 18.5288 13.9998 17.9778 13.9998C17.0678 13.9998 9.8638 14.2008 8.2988 20.4248C9.9528 19.2068 12.5798 17.8748 16.1568 17.8748Z" fill="#97939A"/>
</svg>
