<svg width="32" height="32" viewBox="0 0 32 32" fill="none" xmlns="http://www.w3.org/2000/svg">
<path d="M25.004 11.975V10C25 9 24 9 24 9L8 9C8 9 7 9 7.004 10V11.998L6.928 12.002C6.6758 12.0202 6.43986 12.1333 6.26768 12.3184C6.09549 12.5036 5.99985 12.7471 6 13V15C6 15.2652 6.10536 15.5196 6.29289 15.7071C6.48043 15.8946 6.73478 16 7 16H7.004V22C7.004 22.735 7.407 23.372 8 23.72V25C8 25.2652 8.10536 25.5196 8.29289 25.7071C8.48043 25.8946 8.73478 26 9 26H10C10.2652 26 10.5196 25.8946 10.7071 25.7071C10.8946 25.5196 11 25.2652 11 25V24H21V25C21 25.2652 21.1054 25.5196 21.2929 25.7071C21.4804 25.8946 21.7348 26 22 26H23C23.2652 26 23.5196 25.8946 23.7071 25.7071C23.8946 25.5196 24 25.2652 24 25V23.724C24.304 23.5501 24.5569 23.2992 24.7331 22.9966C24.9094 22.6939 25.0028 22.3502 25.004 22V16C25.2692 16 25.5236 15.8946 25.7111 15.7071C25.8986 15.5196 26.004 15.2652 26.004 15V13.062C26.0155 12.9068 25.9909 12.7511 25.932 12.607C25.729 12.12 25.297 12.003 25.004 11.975ZM23.006 22H9.004V15H23.005L23.006 22ZM15.004 11V13H9.004V11H15.004ZM23.004 11V13H17.004V11H23.004Z" fill="#97939A"/>
<path d="M11 21C11.5523 21 12 20.5523 12 20C12 19.4477 11.5523 19 11 19C10.4477 19 10 19.4477 10 20C10 20.5523 10.4477 21 11 21Z" fill="#97939A"/>
<path d="M21 21C21.5523 21 22 20.5523 22 20C22 19.4477 21.5523 19 21 19C20.4477 19 20 19.4477 20 20C20 20.5523 20.4477 21 21 21Z" fill="#97939A"/>
<line x1="14" y1="20" x2="18" y2="20" stroke="#97939A" stroke-width="2"/>
<line x1="14" y1="17" x2="18" y2="17" stroke="#97939A" stroke-width="2"/>
<line x1="9" y1="7" x2="23" y2="7" stroke="#97939A" stroke-width="2"/>
</svg>
