<svg width="24" height="24" viewBox="0 0 24 24" fill="none" xmlns="http://www.w3.org/2000/svg">
<path fill-rule="evenodd" clip-rule="evenodd" d="M12 22C17.5228 22 22 17.5228 22 12C22 6.47715 17.5228 2 12 2C6.47715 2 2 6.47715 2 12C2 17.5228 6.47715 22 12 22ZM9.5795 15.6739C9.99999 16.1087 10.6792 16.1087 11.0997 15.6739L16.6846 9.89826C17.1051 9.46341 17.1051 8.76098 16.6846 8.32613C16.2642 7.89129 15.5849 7.89129 15.1644 8.32613L10.3342 13.3213L8.83557 11.7714C8.41508 11.3366 7.73583 11.3366 7.31535 11.7714C7.11346 11.9797 7 12.2626 7 12.5575C7 12.8524 7.11346 13.1352 7.31535 13.3436L9.5795 15.6739Z" fill="#80B302"/>
</svg>
