<svg width="16" height="16" viewBox="0 0 16 16" fill="none" xmlns="http://www.w3.org/2000/svg">
<path d="M0 3C0 2.44772 0.447715 2 1 2H8C8.55229 2 9 2.44772 9 3V11H1C0.447715 11 0 10.5523 0 10V3Z" fill="#323033"/>
<path d="M5 12C5 13.1046 4.10457 14 3 14C1.89543 14 1 13.1046 1 12C1 12 1.89543 12 3 12C4.10457 12 5 12 5 12Z" fill="#323033"/>
<path d="M14 12C14 13.1046 13.1046 14 12 14C10.8954 14 10 13.1046 10 12C10 12 10.8954 12 12 12C13.1046 12 14 12 14 12Z" fill="#323033"/>
<path d="M10 4H12.5401C12.832 4 13.1093 4.12756 13.2993 4.34921L15.7593 7.21913C15.9146 7.40038 16 7.63121 16 7.86992V10C16 10.5523 15.5523 11 15 11H10V4Z" fill="#323033"/>
</svg>
