<svg width="16" height="16" viewBox="0 0 16 16" fill="none" xmlns="http://www.w3.org/2000/svg">
<path d="M12.7781 13.752C12.6256 13.9038 12.1792 13.9996 12.1658 13.9996C9.46378 14.0224 6.86235 12.9613 4.95056 11.0488C3.03331 9.13162 1.97112 6.51957 2.0006 3.80927C2.0006 3.80927 2.09846 3.3738 2.25054 3.22287C3.0978 2.37471 4.11472 1.61362 5.43701 2.054L5.61699 2.11452C6.03708 2.25443 6.476 2.7182 6.59233 3.14502L7.02222 4.72262C7.13892 5.15025 6.98213 5.75863 6.66934 6.07147L6.09875 6.64215C6.65835 8.71655 7.28481 9.34291 9.35772 9.90334L9.92831 9.33267C10.2411 9.0198 10.851 8.86339 11.2786 8.97973L12.8559 9.4105C13.2819 9.52605 13.7456 9.96465 13.8863 10.3852L13.946 10.5652C14.3857 11.8875 13.6259 12.9041 12.7781 13.752Z" fill="#323033"/>
</svg>
