<svg width="16" height="16" viewBox="0 0 16 16" fill="none" xmlns="http://www.w3.org/2000/svg">
<path d="M8 5C8 6.933 6.65685 9 5 9C3.34315 9 2 6.933 2 5C2 3.067 3.34315 2 5 2C6.65685 2 8 3.067 8 5Z" fill="#323033"/>
<path d="M1.04087 12.4493C1.32029 10.5699 2.99799 9 5 9C7.00201 9 8.67971 10.5699 8.95913 12.4493C8.88143 12.4814 8.7901 12.5159 8.68377 12.5513C8.05863 12.7597 6.91965 13 5 13C3.08035 13 1.94137 12.7597 1.31623 12.5513C1.2099 12.5159 1.11857 12.4814 1.04087 12.4493Z" fill="#323033" stroke="#323033" stroke-width="2"/>
<rect x="10" y="3" width="6" height="2" fill="#323033"/>
<rect x="10" y="7" width="6" height="2" fill="#323033"/>
<rect x="12" y="11" width="4" height="2" fill="#323033"/>
</svg>
